<svg width="31" height="32" viewBox="0 0 31 32" fill="none" xmlns="http://www.w3.org/2000/svg">
<g clip-path="url(#clip0_32_1470)">
<mask id="mask0_32_1470" style="mask-type:luminance" maskUnits="userSpaceOnUse" x="0" y="0" width="31" height="32">
<path d="M30.3335 0H0.333496V32H30.3335V0Z" fill="white"/>
</mask>
<g mask="url(#mask0_32_1470)">
<path d="M21.1772 22.3105C22.3166 19.5221 19.2502 15.5863 14.328 13.5196C9.40584 11.453 4.49193 12.0381 3.35247 14.8266C2.21301 17.615 5.27948 21.5508 10.2017 23.6175C15.1238 25.6841 20.0377 25.099 21.1772 22.3105Z" stroke="#505050" stroke-width="2" stroke-linecap="round" stroke-linejoin="round"/>
<path d="M3.35212 14.8267L1.68298 18.9108C1.21898 20.0465 1.31869 21.3389 1.95384 22.3854C3.22258 24.476 5.55357 26.4393 8.5362 27.6919C11.5189 28.9446 14.5368 29.2263 16.8929 28.6581C18.0722 28.3732 19.0441 27.5304 19.5081 26.3955L21.1773 22.3114" stroke="#505050" stroke-width="2" stroke-linecap="round" stroke-linejoin="round"/>
<path d="M23.363 19.2649C26.6393 19.319 29.2663 20.8406 29.2663 22.71C29.2663 24.5794 26.5419 26.1567 23.1817 26.1567C22.7734 26.1567 22.3746 26.1336 21.9883 26.0907" stroke="#505050" stroke-width="2" stroke-linecap="round" stroke-linejoin="round"/>
<path d="M20.8203 28.6675C21.5551 28.8426 22.3512 28.9381 23.1819 28.9381C25.2184 28.9381 27.0438 28.3643 28.2812 27.4563C28.9006 27.0018 29.2665 26.2729 29.2665 25.4977V22.71" stroke="#505050" stroke-width="2" stroke-linecap="round" stroke-linejoin="round"/>
<path d="M23.7123 9.94815C26.8169 8.64462 28.7511 6.16222 28.0325 4.40355C27.3138 2.64489 24.2144 2.27593 21.1098 3.57946C18.0052 4.88299 16.071 7.36539 16.7896 9.12405C17.5083 10.8827 20.6077 11.2517 23.7123 9.94815Z" stroke="#505050" stroke-width="2" stroke-linecap="round" stroke-linejoin="round"/>
<path d="M16.7886 9.12439L17.8414 11.7005C18.1343 12.4167 18.7475 12.9483 19.491 13.1274C20.9764 13.4863 22.8803 13.308 24.7614 12.5186C26.6425 11.7283 28.113 10.49 28.9131 9.17134C29.3135 8.51081 29.3763 7.69589 29.0842 6.97965L28.0314 4.40356" stroke="#505050" stroke-width="2" stroke-linecap="round" stroke-linejoin="round"/>
</g>
</g>
<defs>
<clipPath id="clip0_32_1470">
<rect width="31" height="32" fill="white"/>
</clipPath>
</defs>
</svg>
