<svg width="580" height="544" viewBox="0 0 580 544" fill="none" xmlns="http://www.w3.org/2000/svg">
<path d="M577.007 369.832C572.714 369.832 567.901 370.224 563.999 369.963C558.666 369.832 553.983 369.571 548.911 369.31C547.87 369.31 547.22 368.788 546.439 369.18C543.838 370.224 542.017 370.224 539.675 368.658C538.635 368.005 537.334 368.397 536.293 368.266C535.643 368.266 534.732 368.136 534.472 368.136C532.131 367.875 530.31 367.614 528.099 367.353C529.66 365.004 532.001 362.133 533.432 359.914C536.423 355.346 539.285 351.431 541.757 346.733C543.187 343.992 544.748 341.382 546.439 338.772C549.561 334.074 551.902 329.115 553.723 323.764C555.805 317.761 557.365 311.889 558.016 305.624C558.016 305.102 558.146 304.58 558.276 304.189C558.796 301.057 559.447 297.925 559.837 294.662C560.227 291.008 560.487 287.223 560.617 283.569C560.617 282.003 560.617 280.568 560.617 279.002C560.617 272.215 560.617 265.56 560.227 258.774C560.227 256.816 559.967 254.858 559.837 252.901C559.577 249.377 559.186 246.115 559.056 242.591C558.926 239.068 558.926 235.283 558.926 231.759C558.926 229.802 558.796 227.844 558.536 226.017C558.276 224.451 558.016 223.016 557.886 221.45C557.105 216.099 556.065 210.879 554.244 205.789C552.032 199.133 549.691 192.478 547.48 185.822C543.317 173.555 539.025 161.418 534.472 149.281C534.082 148.367 533.562 147.454 533.172 146.54C532.131 138.71 526.018 133.882 521.725 127.748C521.205 127.095 520.815 126.312 520.294 125.79C514.051 118.613 507.677 111.435 501.303 104.388C500.653 103.605 499.873 102.952 499.222 102.3C494.019 97.471 490.898 91.5984 485.434 86.7697C483.093 84.6817 476.589 82.3326 474.378 80.7666C460.33 70.5873 450.314 59.6249 436.397 49.4457C433.665 47.4881 426.121 46.1831 422.869 44.617C415.975 41.3544 409.992 38.0918 403.228 34.8292C401.016 33.7852 399.065 32.8717 396.464 32.2192C395.033 31.8277 393.472 31.4361 392.041 30.7836C389.96 29.8701 389.57 29.4786 386.578 28.4346C385.668 28.1736 378.774 26.8685 376.823 26.477C375.522 13.1656 376.172 -1.32028 370.709 -13.7181C368.888 -13.1961 368.108 -12.1521 368.368 -10.1945C368.368 -9.54202 368.758 -9.02 369.018 -8.49799C370.449 -6.27942 370.319 -5.3659 369.018 -3.14734C368.758 -2.62532 368.368 -1.9728 368.108 -1.58129C367.717 -1.71179 367.327 -1.9728 366.807 -2.1033C365.506 -2.49482 364.856 -2.88633 364.986 -4.45237C364.986 -4.84388 364.596 -5.23539 364.336 -5.6269C353.93 -21.6789 358.742 -39.9494 338.061 -48.5626C326.224 -53.5218 309.184 -43.0815 296.307 -46.3441C293.705 -46.9966 292.275 -46.3441 290.063 -45.039C280.958 -39.0359 267.951 -37.0783 257.285 -38.3833C255.464 -38.6443 255.984 -39.1664 254.033 -38.5138C253.512 -38.3833 253.122 -34.9902 251.691 -33.0327C250.781 -31.7276 248.83 -28.3345 248.96 -24.9415C249.22 -21.4179 246.489 -15.4147 244.277 -12.0216C239.204 -10.7165 228.018 -8.36748 224.116 -8.49799C220.214 -8.62849 221.905 -8.49799 220.214 -7.71496C218.523 -6.93194 218.653 -6.54043 217.612 -5.6269C217.092 -5.10489 216.832 -5.10489 216.311 -4.97438C214.75 -4.45237 213.19 -4.19136 211.629 -3.93036C208.767 -3.27784 206.035 -2.75582 203.174 -2.49481C202.003 -2.49481 200.963 -2.1033 199.792 -1.71179C197.711 -0.798267 195.63 0.115261 193.678 1.15929C190.687 2.85584 187.825 4.68289 184.964 6.64045C182.362 8.33699 179.891 10.0335 176.899 11.0776C175.468 11.5996 174.297 12.5131 173.257 13.5571C172.216 14.6012 170.915 15.6452 169.485 16.4282C167.273 17.7333 164.932 18.9078 162.721 20.2128C162.07 20.6043 161.42 20.9958 160.9 21.5179C159.729 22.5619 158.428 23.2144 156.868 23.3449C155.957 23.3449 155.177 23.8669 154.786 24.5195C154.006 26.0855 152.705 26.8685 151.274 27.6515C150.494 28.043 149.713 28.4346 149.063 28.9566C148.022 29.8701 146.592 30.2616 145.421 30.3921C143.86 30.5226 142.429 31.0446 141.259 31.9582C138.787 33.7852 136.576 35.4818 134.365 37.5698C132.544 39.2664 130.853 40.9629 128.902 42.3985C126.43 44.356 124.089 46.1831 121.748 48.4016C120.967 49.0541 119.796 50.0982 119.016 50.7507C116.805 52.3167 115.114 54.0133 113.033 55.7098C110.951 57.4064 108.87 59.364 106.789 61.191C105.488 62.235 104.188 63.4096 103.017 64.4536C100.155 67.1942 97.1635 70.0653 94.3019 72.9363C93.3914 73.8499 92.4809 74.7634 91.7004 75.9379C91.1801 76.7209 90.7899 77.504 90.0095 78.1565C88.1884 79.853 86.6275 81.6801 84.8065 83.5071C83.896 84.4207 83.2456 85.3342 82.4652 86.5087C81.6847 87.6832 80.7742 89.1188 79.7336 90.2933C78.4329 91.8594 77.1321 93.5559 76.6118 95.644C76.2216 97.21 75.3111 98.515 74.4006 99.8201C74.0104 100.342 73.36 100.603 73.0998 101.256C72.7096 101.908 72.4495 102.691 72.1893 103.344C72.1893 103.605 71.9292 103.996 71.669 104.257C71.0187 105.171 70.6284 106.084 70.2382 106.998C69.9781 107.389 69.7179 108.042 69.4578 108.564C68.4172 110.13 67.5067 111.565 67.1164 113.392C67.1164 113.653 66.8563 113.914 66.5961 114.306C66.336 114.567 65.8157 115.089 65.8157 115.481C65.5555 116.655 64.7751 117.569 64.2548 118.613C63.7345 119.787 63.4744 120.831 62.5638 121.745C62.4338 122.006 62.3037 122.397 62.3037 122.658C62.3037 123.963 61.9135 124.616 61.003 125.529C60.0924 126.443 59.4421 127.617 58.7917 128.922C58.0112 130.749 57.621 132.838 56.8406 134.665C56.8406 134.926 56.8406 135.317 56.8406 135.578C56.8406 137.275 56.8406 138.841 56.1902 140.537C55.5398 142.234 54.3692 143.93 53.0684 145.366C52.4181 146.149 51.8978 146.932 51.8978 148.106C51.7677 150.195 51.2474 152.022 51.8978 154.11C51.8978 154.24 51.8978 154.501 51.8978 154.632C51.8978 155.415 51.5075 156.198 50.7271 155.937C46.955 154.762 43.573 156.72 39.6708 156.459C39.6708 156.72 39.5407 156.981 39.5407 157.242C38.5001 156.981 37.7197 156.459 36.6791 156.067C36.6791 156.198 36.6791 156.459 36.6791 156.589C34.728 156.589 32.907 156.589 31.0859 157.633C31.0859 157.503 31.216 157.242 31.3461 157.111C29.9153 157.111 28.6145 156.981 27.3138 157.633C27.3138 157.372 27.3138 157.242 27.1837 156.981C25.1025 157.764 22.371 157.764 20.2898 157.764C18.2086 157.764 16.9079 158.155 14.9567 158.547C14.5665 158.025 14.4365 157.894 13.7861 157.764C14.0462 157.764 14.3064 158.025 14.5665 158.155C12.7455 158.155 11.0545 158.938 9.36357 159.069C6.50194 159.199 3.64031 159.591 0.778682 160.113C0.518534 160.113 0.258386 160.243 0.128312 160.374C-0.00176193 160.504 -0.00176193 160.635 -0.131836 160.765C-0.131836 160.896 -0.131836 161.157 -0.00176193 161.157C1.03883 161.418 1.94935 161.548 2.98994 161.679C4.03053 161.679 5.33127 161.809 6.50194 161.94C7.28238 161.94 7.93275 162.07 8.7132 162.201C12.6154 162.462 16.6477 162.07 20.4199 163.506C21.2003 163.245 22.1108 163.506 22.8913 163.506C22.8913 163.506 22.8913 163.767 22.8913 163.897C23.6717 163.636 24.3221 163.375 25.1025 163.114C24.9724 163.506 24.9724 163.897 24.8424 164.419C25.6228 163.897 26.9236 162.592 27.4439 164.158C28.7446 164.289 30.1754 164.289 31.6062 164.419C31.6062 164.419 31.6062 164.55 31.6062 164.68C34.9881 163.114 41.4918 164.941 44.7437 165.202C46.5647 165.333 46.4347 165.463 47.6053 165.594C48.2557 165.594 48.2557 165.985 48.2557 166.507C48.2557 167.029 48.2557 167.29 47.9955 167.813C46.6948 173.816 45.264 179.819 43.8332 185.822C43.443 187.78 43.0527 189.607 43.0527 191.564C43.0527 193.913 43.0527 196.132 43.0527 198.35C43.0527 199.133 43.1828 200.047 43.3129 200.83C43.573 202.787 43.9633 204.876 43.9633 206.833C43.9633 208.53 44.3535 209.965 44.7437 211.531C44.8738 212.184 45.1339 212.836 45.264 213.489C46.0444 217.534 46.3046 221.45 46.6948 225.495C46.6948 226.278 47.085 226.931 46.6948 227.714C46.6948 228.105 46.6948 228.366 46.955 228.627C47.4753 229.541 47.7354 230.454 47.7354 231.498C47.7354 232.02 47.7354 232.542 47.9955 232.934C48.5158 235.152 49.1662 237.371 49.2963 239.59C49.2963 240.242 49.5564 240.895 49.6865 241.547C50.3369 243.244 50.3369 244.94 50.7271 246.767C50.597 248.855 50.9873 251.074 51.3775 253.031C51.6376 254.989 52.1579 256.555 52.8083 258.382C53.4587 260.209 53.8489 262.036 54.2391 263.994C54.4993 265.429 54.7594 266.734 55.2797 268.17C55.5398 268.692 55.8 269.344 55.8 269.866C55.8 271.302 56.0601 272.607 56.3203 274.043C56.7105 275.478 56.8406 276.914 56.8406 278.349C56.8406 279.785 56.8406 281.09 57.491 282.264C58.5315 284.222 58.2714 286.31 59.1819 288.267C59.1819 288.267 59.1819 288.659 59.1819 288.789C58.7917 289.964 59.1819 290.878 59.5721 291.922C59.8323 292.444 60.0924 293.096 60.0924 293.618C60.0924 294.923 60.3526 295.837 61.133 296.881C61.9135 297.925 62.4338 299.23 62.6939 300.535C62.9541 301.318 63.2142 301.84 63.8646 302.492C65.0352 303.667 65.6856 304.841 65.9458 306.668C65.9458 307.712 66.4661 308.626 66.9864 309.801C67.5067 310.975 68.157 312.411 68.2871 313.716C68.2871 315.021 68.5472 316.195 69.1976 317.37C69.5878 318.153 69.7179 318.805 69.5878 319.719C69.3277 321.154 69.4578 322.72 69.5878 324.286C69.5878 324.808 69.7179 325.2 70.1081 325.722C71.0187 326.766 71.4089 327.81 71.5389 329.115C71.669 330.42 72.1893 331.725 72.7096 332.9C73.6201 335.118 74.2705 337.337 75.4412 339.425C76.0915 340.599 76.6118 341.774 76.6118 343.209C76.6118 343.601 77.0021 344.123 77.1321 344.515C78.1727 346.472 78.8231 348.43 79.6035 350.518C79.9938 351.562 80.1238 352.736 80.5141 353.911C81.6847 356.912 83.3757 359.522 84.1561 362.785C84.4163 363.829 84.6764 364.873 85.1967 365.787C85.4569 366.309 85.717 367.092 86.1072 367.614C87.408 369.18 87.7982 370.746 88.0583 372.703C88.1884 373.486 88.4486 374.139 88.9689 374.661C89.6192 375.574 90.1395 376.488 90.5298 377.662C91.05 379.359 91.5704 380.795 92.2207 382.361C93.1312 384.449 94.0418 386.537 95.0823 388.494C95.7327 389.799 96.5132 391.104 96.7733 392.67C97.1635 395.411 97.944 398.021 98.8545 400.762C99.1146 401.414 99.2447 402.067 99.6349 402.589C100.285 403.372 100.545 404.155 100.936 405.068C101.976 407.678 102.757 410.158 104.318 412.376C104.448 412.637 104.578 413.029 104.708 413.29C106.139 416.292 107.83 419.163 109.911 421.903C110.691 422.817 111.342 423.73 112.122 424.644C117.065 430.777 121.227 436.259 126.69 442.653C127.081 443.045 132.284 445.916 133.454 446.438C133.714 454.007 131.893 460.663 130.853 467.971C129.292 479.586 129.942 491.984 131.373 503.599C131.763 506.861 132.414 509.341 133.324 511.168C133.714 512.081 134.235 512.864 134.755 513.517C135.535 514.561 136.446 515.213 137.486 515.735C138.007 515.996 138.657 516.257 139.308 516.518C140.608 516.91 142.039 517.04 143.6 517.171C144.12 517.171 144.641 517.171 145.161 517.171C145.681 517.171 146.201 515.083 146.722 515.083C149.453 515.083 151.795 517.693 155.567 519.128C156.868 519.651 158.428 516.649 159.989 516.779C160.51 516.779 161.03 516.779 161.55 516.91C162.331 516.91 163.241 517.171 164.022 517.301L165.452 517.04L168.054 516.649V517.693C168.054 517.693 168.444 517.823 168.574 517.823L169.875 516.257L174.948 515.735L174.558 519.911C174.558 519.911 177.549 517.04 178.2 517.04C178.59 517.04 179.11 517.04 179.63 516.91C181.451 516.649 183.533 515.474 185.484 514.43C185.744 515.735 186.004 516.779 186.134 517.432C184.183 517.823 181.321 517.432 179.5 517.301C183.533 526.176 191.987 519.128 198.751 514.43C198.751 514.039 198.751 513.778 198.751 513.386C204.605 511.951 209.678 510.124 211.889 507.905C208.767 506.209 215.661 504.904 215.661 504.904C215.661 504.904 218.262 505.817 219.693 506.339C220.344 506.6 221.254 506.47 221.905 506.731C222.555 506.861 222.945 507.253 223.465 507.775C224.376 508.558 225.547 508.949 226.717 509.21C228.278 509.602 229.969 509.993 231.53 510.776C233.091 511.429 234.782 511.559 236.213 512.081C236.863 512.342 237.513 512.864 238.034 512.995C238.554 513.125 238.944 513.125 239.334 513.386C240.245 513.778 240.635 514.3 241.546 514.822C242.456 515.344 243.367 515.474 244.277 514.822C244.277 514.822 244.277 514.822 244.407 514.822C245.838 515.344 247.009 516.127 248.57 516.518C248.96 516.518 250.391 516.518 250.651 516.649C252.732 517.171 254.163 517.562 256.114 518.084C258.065 518.606 260.016 519.781 262.227 520.303C263.138 520.434 263.918 520.434 264.959 520.695C267.04 521.086 268.861 520.825 271.203 521.217C275.625 521.869 277.186 524.61 283.56 522.913C284.08 522.913 297.478 523.174 301.12 523.174C303.071 523.174 307.623 522.13 310.355 522C312.696 521.869 316.989 522 319.59 522C321.151 521.869 321.541 521.216 323.362 521.086C326.354 520.825 330.516 520.825 333.638 520.433C335.849 520.172 337.67 519.781 339.752 519.52C343.264 518.998 346.125 518.867 350.027 518.215C350.938 518.084 356.921 517.301 357.572 517.171C360.303 516.649 360.824 516.91 363.295 516.518C365.246 516.127 368.628 516.649 370.579 516.257C372.92 515.735 374.221 514.822 376.432 514.3C378.644 513.647 379.814 513.778 382.676 512.864C384.757 512.212 393.862 510.385 395.423 510.124C400.366 509.21 402.057 509.08 406.219 508.949C408.821 515.866 411.552 522.783 413.373 530.091C414.284 532.44 415.325 535.833 417.536 537.268C419.617 538.704 422.609 540.923 424.56 541.706C427.161 542.88 428.592 542.228 430.933 542.097C434.315 542.097 437.437 541.967 440.689 541.836C442.64 541.836 444.071 542.489 445.762 542.88C447.973 543.272 449.924 542.489 452.135 542.358C454.347 542.228 456.428 543.272 458.509 543.141C459.68 543.141 460.59 542.228 461.631 542.097C462.672 541.836 463.192 542.097 464.232 542.228C466.314 542.228 468.525 542.097 470.736 541.967C475.549 541.575 479.971 540.14 484.784 539.226C485.955 538.965 487.776 539.748 488.946 538.965C491.548 537.399 492.719 537.138 495.71 535.964C498.702 534.789 503.125 535.311 504.555 530.221C506.376 523.827 505.726 521.216 503.255 511.298C500.523 500.727 489.597 483.631 491.418 466.666C491.418 465.622 485.695 435.867 484.524 430.777C485.955 428.559 493.369 423.339 493.889 422.817C496.101 420.598 495.58 420.859 496.491 419.293C496.881 418.641 497.011 418.38 497.401 418.119C498.182 417.466 498.442 416.814 498.962 416.031C499.873 414.595 500.393 413.159 501.173 411.724C501.954 410.288 502.994 408.853 503.905 407.548C504.165 407.026 504.685 406.634 504.946 406.112C505.986 403.502 507.677 401.414 509.498 399.196C509.628 399.065 509.888 398.804 509.888 398.543C510.018 397.368 510.539 397.108 511.189 396.063C512.62 393.845 513.27 393.192 514.961 390.321C515.872 388.886 518.603 383.405 519.644 381.317C523.416 380.142 524.847 380.142 529.269 380.534C532.001 380.795 536.814 381.186 540.586 380.012C544.488 378.837 550.341 379.098 554.634 377.923C557.886 377.14 561.268 377.401 564.78 377.14C567.511 377.01 568.422 377.14 571.413 376.227C573.104 375.705 579.608 371.007 579.608 371.007C579.608 371.007 577.007 370.876 576.616 370.876L577.007 369.832ZM136.056 148.367C137.486 147.062 139.177 144.322 139.698 142.364C140.348 140.407 142.689 139.232 143.08 137.275C143.6 135.448 145.161 133.229 146.852 132.185C148.413 131.271 146.722 132.185 148.933 129.575C151.144 126.965 154.526 123.18 153.876 124.224C153.225 125.268 155.437 122.919 155.697 122.658C155.957 122.397 156.607 122.006 156.998 121.745C157.388 121.484 157.648 121.223 158.038 121.092C158.168 122.397 158.428 123.702 158.428 125.007C158.428 125.529 158.558 126.834 158.689 127.226C158.689 127.878 158.949 130.488 158.689 130.227C158.428 129.966 158.689 133.229 158.689 133.751C158.689 134.012 158.689 134.273 158.819 134.795C158.819 135.317 159.729 138.058 158.819 138.319C158.038 138.58 158.558 141.581 158.689 142.625C158.819 143.669 158.949 145.888 159.209 147.062C159.209 147.715 159.339 148.498 159.469 149.02C159.469 150.064 159.469 151.108 159.469 152.022C159.469 152.413 159.469 152.805 159.339 152.935C158.949 153.718 158.819 153.196 158.428 152.935C157.388 152.935 156.217 152.935 155.307 153.066C154.396 153.066 154.526 153.066 153.355 153.066C152.185 153.066 149.974 152.935 148.673 153.066C148.413 153.066 148.153 153.066 148.022 153.196C147.502 153.196 145.681 153.588 145.551 153.066C145.421 152.544 143.47 152.805 142.82 152.805C142.559 152.805 141.129 152.805 140.608 152.805C139.568 152.805 138.657 152.805 137.486 152.935C136.316 152.935 134.755 152.935 133.584 152.935C134.365 151.369 134.495 149.542 135.926 148.367H136.056ZM170.005 511.168C170.005 511.168 170.005 512.473 170.135 512.995C168.964 512.995 167.403 513.386 167.273 511.951C166.623 512.212 166.103 512.734 165.713 513.386C164.932 512.864 164.542 511.951 165.062 510.907C167.534 512.603 167.664 508.688 168.574 507.383C169.094 508.036 169.485 509.341 169.485 509.993L169.875 509.471C169.875 509.471 170.785 510.776 169.875 511.168H170.005ZM174.167 510.907C173.257 510.385 174.167 509.341 172.997 508.558H172.737C172.737 508.949 172.737 509.341 172.867 509.732L172.346 509.21C172.346 509.21 171.826 509.341 171.956 509.21C172.216 508.819 172.476 508.688 172.737 508.558C172.606 507.383 172.606 506.209 172.867 504.904C172.867 505.687 172.867 506.6 173.387 507.122C174.037 506.078 174.037 505.034 174.427 503.99C174.688 503.99 175.338 503.99 175.468 504.121C175.468 505.295 174.948 507.644 175.858 508.427C175.468 509.341 174.948 510.124 174.167 510.907ZM190.687 197.828C191.467 198.35 191.727 197.567 191.987 197.306C195.369 202.788 193.028 207.877 189.646 212.836C188.475 212.575 187.305 212.053 186.134 211.531C186.134 211.401 186.134 210.879 186.004 210.879H185.484V211.14C185.484 211.14 185.484 211.662 185.614 211.792H185.874C187.175 214.272 188.215 215.838 190.557 217.534C185.614 220.928 184.833 227.975 182.622 233.195C183.142 238.285 181.582 242.722 180.541 248.203C180.281 249.899 178.59 253.423 178.2 255.903C177.809 258.513 178.59 262.036 177.679 264.907C177.289 266.343 175.728 268.431 175.468 269.997C174.818 272.999 175.468 276.392 174.948 279.263C174.037 283.7 172.086 286.571 171.176 291.138C170.785 292.835 169.745 297.011 169.485 298.708C168.834 302.362 168.834 304.972 167.924 308.365C167.534 310.062 166.623 311.758 165.843 313.585C165.062 315.412 164.022 316.848 163.241 318.936C162.461 321.024 164.282 322.329 163.501 324.808C162.461 328.463 159.599 332.378 159.469 336.815C159.469 338.772 158.558 339.425 159.209 342.165C159.859 344.906 158.168 350.518 156.737 353.65C156.607 354.041 156.477 355.346 156.347 355.999C155.957 358.217 155.307 360.827 154.656 363.046C154.136 364.612 153.486 365.917 152.705 367.353C151.665 369.18 150.624 370.615 149.974 372.834C149.583 373.878 150.234 375.835 149.974 377.01C149.323 379.49 149.453 381.969 148.803 384.318C148.543 385.232 148.283 386.015 148.022 386.798C147.632 387.972 147.242 389.147 146.852 390.321C146.071 392.409 145.421 394.367 144.771 396.455C143.99 398.543 143.21 400.892 142.429 402.98C141.519 405.721 140.738 408.331 139.958 411.202C138.917 409.505 137.747 407.678 136.706 405.982C135.665 404.285 134.495 402.458 133.584 400.892C132.674 399.326 131.893 397.891 131.243 396.455C130.983 395.802 130.723 395.28 130.593 394.758C129.682 391.887 128.902 390.06 128.251 386.928C127.991 385.623 127.601 382.622 127.471 380.925C127.471 380.664 127.471 379.881 127.341 379.62C126.43 377.01 125.52 373.878 126.04 371.137C126.3 369.571 125.52 368.658 125.129 367.353C124.739 366.048 124.349 364.743 123.959 363.699C123.569 362.655 122.528 360.566 122.528 359.914C122.528 357.956 120.967 349.082 119.926 348.821C118.886 348.56 119.276 344.776 118.886 343.34C118.236 340.469 117.845 336.554 117.195 333.552C117.195 333.291 117.195 332.9 117.195 332.508C116.675 330.681 116.414 329.246 116.154 327.158C115.894 325.069 116.154 322.329 116.154 320.11C116.154 318.805 116.154 316.587 116.154 315.412C115.634 311.367 114.854 306.146 116.805 302.884C117.715 301.318 117.065 300.535 117.065 299.23C117.065 297.011 116.935 295.054 117.195 293.096C117.455 291.139 117.715 289.181 118.626 287.745C118.626 287.615 119.016 289.964 118.626 286.701C118.366 282.395 120.967 276.131 123.178 272.607C124.739 270.258 125.78 267.126 126.56 265.56C127.861 263.08 128.511 260.862 127.731 259.165C126.43 255.903 126.69 253.945 126.17 251.074C125.91 249.769 125.39 248.855 124.739 247.942C123.569 246.376 122.398 244.81 121.487 243.113C120.837 241.939 120.317 240.764 119.796 239.59C118.756 237.11 118.105 234.5 117.585 231.89C117.065 229.28 116.805 226.8 116.805 224.321C116.805 221.841 116.805 219.492 116.414 217.012C116.414 216.49 116.414 215.968 116.414 215.446C116.414 214.011 116.414 212.575 116.675 211.14C116.675 210.096 116.675 208.921 116.805 207.877C116.805 206.833 117.195 205.789 117.195 204.615C117.195 201.221 117.585 198.089 118.886 194.827C119.796 192.347 119.926 189.737 120.577 187.258C120.967 185.692 121.617 184.256 121.748 182.69C121.748 180.602 122.528 179.036 123.569 177.209C124.349 175.904 125.129 174.86 125.39 173.294C125.65 171.728 126.04 170.684 127.471 170.031C127.861 169.77 128.121 169.248 128.381 168.987C128.641 168.596 128.902 168.335 129.292 168.074C130.593 168.074 132.023 168.074 133.324 168.074C135.405 167.551 136.576 167.551 138.787 168.074C139.958 168.335 140.738 168.596 142.429 168.074C144.12 167.421 147.762 167.812 149.713 168.074C151.144 168.726 154.006 169.77 155.046 168.074C156.087 166.377 158.949 167.16 160.119 168.074C161.29 168.987 160.77 168.726 160.249 168.204C160.51 170.162 160.51 171.858 160.51 173.816C160.51 174.338 159.989 174.99 160.64 175.773C161.29 176.687 160.38 179.427 161.03 180.863C162.07 183.473 161.81 186.214 161.55 189.085C161.55 189.737 161.55 190.39 161.55 190.912C161.94 192.347 161.94 193.783 161.81 195.088C161.42 197.698 162.201 199.786 162.461 202.265C162.461 202.657 162.591 202.788 162.461 203.31C162.201 205.92 162.461 208.008 162.851 210.879C163.111 212.575 163.111 215.446 163.111 217.404C163.111 219.361 163.371 221.58 163.501 223.668C163.631 226.017 163.891 228.497 164.022 230.846C164.022 230.976 164.022 231.237 164.022 231.368C163.501 233.717 163.241 235.674 164.282 237.893C165.582 240.764 165.322 243.113 164.672 246.376C164.282 247.942 164.412 249.638 165.062 251.857C165.582 253.553 165.192 257.077 165.582 259.165C165.582 259.296 165.582 259.557 165.582 259.687C165.582 260.601 166.233 266.865 167.013 265.429C167.794 263.994 168.444 262.297 169.485 260.992C170.005 258.382 170.525 255.902 171.046 253.423C172.216 251.596 172.216 250.291 172.086 248.333C172.737 246.376 173.387 244.418 173.257 242.461C174.167 241.156 174.558 239.981 174.037 238.415C175.338 236.588 175.338 235.413 175.078 233.064C175.078 232.02 173.777 231.237 174.688 229.671C175.598 228.105 174.688 222.233 174.297 219.622C174.297 218.839 173.907 217.795 174.297 216.621C174.948 214.533 175.078 213.097 174.037 210.618C173.387 208.921 173.517 206.311 173.777 203.962C173.777 202.526 173.777 199.786 173.517 197.959C173.387 196.001 173.387 193.783 173.517 191.695C173.517 189.607 173.517 187.649 173.387 185.431C173.387 184.125 174.037 183.342 173.257 181.776C172.346 180.21 172.346 177.6 173.257 175.643C173.517 175.121 172.346 173.424 173.257 173.033C173.777 172.902 173.647 171.989 173.127 170.945C172.346 168.987 173.127 167.812 175.988 168.335C176.379 168.335 177.029 168.857 177.549 168.335C178.07 167.812 178.46 167.682 178.33 168.335C179.24 168.335 180.541 168.335 181.321 168.335C182.232 168.335 182.622 168.335 183.403 168.335C184.183 168.335 185.094 168.335 185.874 168.335C186.915 168.987 187.695 168.857 188.736 168.335C190.297 168.857 191.857 168.596 193.548 168.335C190.687 170.162 190.166 172.119 190.817 175.382C192.898 175.382 194.979 175.382 196.93 174.99C195.109 176.034 193.548 177.6 191.597 178.514C192.638 179.819 192.638 180.993 192.638 182.69C194.329 183.342 195.76 184.386 197.321 185.3C194.849 188.432 192.508 191.564 190.427 194.957C190.036 194.957 189.516 194.957 189.126 194.957C189.256 196.001 190.166 197.437 190.817 197.959L190.687 197.828ZM216.181 88.5968C215.921 89.3798 215.661 90.2933 215.791 91.3374C216.181 93.1644 215.531 94.9915 214.75 96.949C214.23 98.3846 213.97 100.212 213.58 101.778C212.929 104.127 211.889 106.476 211.629 108.825C211.238 111.174 210.848 113.392 209.547 115.481C208.507 117.177 208.377 118.874 207.857 120.701C207.466 122.136 206.946 123.441 206.556 124.746C205.645 125.66 205.255 126.965 205.515 128.4C205.905 130.88 204.605 132.968 203.434 135.448C202.393 137.405 201.873 139.885 201.483 142.234C201.483 143.017 201.093 143.93 200.702 144.844C200.182 146.41 199.922 148.106 199.272 149.673C198.881 150.456 197.451 151.761 198.491 152.283C199.532 152.805 195.239 152.283 194.849 152.544C193.809 153.196 192.898 153.196 191.857 152.544C191.597 152.544 190.687 152.544 190.427 152.544C189.646 152.544 186.004 151.891 186.134 152.674C186.134 153.588 183.923 152.674 183.142 152.674C182.362 152.674 181.321 152.674 180.541 152.674C182.102 150.978 178.2 152.544 177.549 152.674C175.988 152.674 174.427 152.674 172.867 152.674C172.216 153.327 172.476 152.413 172.606 151.891C172.606 151.63 172.606 151.239 172.606 150.847C172.606 150.195 173.127 149.15 173.127 148.628C173.127 147.454 172.346 146.932 172.216 145.757C171.956 144.583 172.737 142.886 172.737 141.712C172.737 138.971 172.086 136.492 171.696 133.882C171.436 132.185 172.216 131.141 172.346 129.444C172.476 127.748 172.086 126.704 172.086 124.877C172.086 123.05 170.655 120.048 171.566 118.091C171.826 118.091 171.956 118.221 172.216 118.352C172.346 117.308 171.956 116.394 171.956 115.22C171.956 114.045 172.216 112.87 171.956 111.696C171.826 110.913 170.915 110.13 170.915 109.347C170.915 107.389 172.086 106.606 173.517 105.562C175.208 104.127 175.858 102.169 177.939 101.386C180.021 100.603 180.801 98.7761 182.752 97.3405C183.793 96.5575 185.224 95.644 186.524 94.5999C187.435 93.8169 188.866 93.6864 189.906 92.1204C191.467 89.9018 193.288 88.4663 196.54 87.6833C197.19 87.6833 197.971 86.5087 198.751 85.9867C200.182 85.0732 204.865 83.6376 206.035 83.1156C207.987 82.2021 216.571 77.504 216.962 79.7225C216.962 80.897 216.311 81.8106 216.962 83.1156C217.742 84.6817 217.092 86.3782 216.571 88.0748L216.181 88.5968ZM261.577 298.708C260.927 298.055 261.057 297.272 261.317 296.359C262.097 294.271 262.488 292.444 261.837 290.355C261.837 290.094 261.837 289.833 261.837 289.703C262.748 288.267 262.227 286.832 262.097 285.266C262.097 283.7 261.707 282.264 261.577 280.698C261.577 280.437 261.447 280.307 261.577 280.046C262.227 277.697 261.577 275.609 261.967 273.26C261.967 272.476 262.488 271.824 262.878 271.171C263.398 270.127 263.528 269.083 263.398 267.909C263.268 265.56 262.878 263.341 263.398 260.992C263.398 260.601 263.398 259.948 263.398 259.557C263.398 257.991 263.658 256.294 263.788 254.728C263.788 253.814 264.048 252.77 263.788 251.726C263.138 248.594 263.788 245.723 264.048 242.591C264.048 242.33 264.179 242.069 264.048 241.808C263.398 238.285 264.048 235.022 264.699 231.629C264.699 231.107 264.699 230.585 264.699 230.193C264.959 227.192 265.089 224.321 265.479 221.319C265.739 219.231 266 217.273 266.39 215.316C266.39 214.794 266.65 214.272 266.78 213.619C267.04 212.575 267.43 211.662 267.691 210.618C267.821 210.096 267.951 209.574 268.211 209.052C269.382 207.094 269.772 205.137 270.032 202.918C270.292 200.569 271.072 198.35 271.593 196.001C271.723 195.218 271.983 194.435 271.983 193.783C271.983 191.695 271.983 189.737 272.894 187.78C272.894 187.519 273.154 187.127 273.154 186.736C273.154 183.995 274.064 181.515 274.585 178.905C274.845 177.861 274.585 176.687 274.715 175.643C274.715 175.251 274.715 174.729 274.715 174.468C275.495 173.163 275.625 171.858 275.885 170.423C276.145 169.379 276.536 168.465 276.796 167.551C277.056 166.638 277.316 165.855 277.446 164.941C277.446 164.028 277.836 163.375 278.357 162.723C279.007 161.679 279.657 160.504 279.918 159.33C280.698 155.545 281.478 152.022 283.69 148.628C283.95 148.367 283.95 147.845 283.95 147.454C283.95 144.191 284.99 141.712 287.202 139.363C287.462 139.102 287.722 138.841 287.852 138.58C288.372 137.536 288.893 137.144 290.193 137.144C290.714 137.144 291.234 136.883 291.754 136.622C293.315 135.839 294.876 134.795 296.437 134.273C300.209 132.968 302.42 134.012 303.591 137.797C304.371 140.146 304.762 142.756 305.412 145.235C305.672 146.018 305.802 146.801 306.323 147.584C307.103 149.02 307.753 150.195 307.883 151.891C307.883 152.283 308.144 152.674 308.404 153.066C309.184 153.979 309.444 154.762 309.314 155.937C309.314 156.328 309.314 156.85 309.574 157.372C309.835 158.286 310.225 159.199 310.615 160.113C310.875 160.635 311.135 161.287 311.526 161.809C312.306 162.984 312.696 164.028 312.696 165.594C312.696 166.377 312.956 167.29 313.086 168.074C313.737 170.423 314.387 172.772 315.038 175.251C315.298 176.034 315.298 176.948 315.688 177.731C316.728 179.949 317.249 182.168 317.769 184.517C318.159 186.866 318.94 188.954 319.59 191.303C320.24 193.652 320.891 196.262 321.411 198.611C321.411 199.003 321.541 199.264 321.801 199.655C323.102 202.004 323.622 204.223 323.622 206.964C323.622 206.964 323.622 207.094 323.622 207.225C324.403 209.052 324.143 211.009 324.793 212.836C325.053 213.619 325.573 214.272 325.834 215.055C326.094 215.838 326.484 216.621 326.614 217.404C326.874 220.145 327.395 222.755 328.175 225.495C328.825 228.236 329.476 230.715 329.476 233.586C329.476 234.63 330.256 235.674 330.646 236.588C330.907 237.11 331.167 237.632 331.167 238.154C331.037 240.634 331.427 242.722 332.077 245.071C332.207 245.593 332.077 246.245 332.337 246.767C332.597 247.811 332.858 248.986 333.118 250.03C333.248 250.682 333.508 251.204 333.508 251.857C333.508 254.989 334.419 257.991 334.809 260.992C334.809 261.384 334.809 261.906 335.069 262.167C336.24 264.385 336.5 266.865 337.15 269.214C337.15 269.344 337.15 269.605 337.15 269.866C337.15 273.782 338.061 277.566 338.971 281.22C339.752 284.874 340.532 288.528 341.703 292.052C342.223 293.879 342.873 295.576 342.743 297.533C342.743 297.664 342.743 297.794 342.743 297.925C344.174 300.535 343.784 303.275 344.694 306.016C345.085 307.19 345.215 308.365 345.345 309.54C345.735 313.063 347.426 316.195 347.556 319.849C347.556 320.371 347.816 320.763 347.946 321.285C348.467 323.112 348.987 325.069 349.507 326.897C349.897 328.071 350.548 329.115 350.678 330.159C351.068 332.769 351.458 335.379 351.588 338.12C351.588 339.947 350.548 341.121 348.727 341.252C346.515 341.513 344.174 341.643 341.963 341.643C341.182 341.643 340.272 341.382 339.491 341.252C338.061 340.991 336.89 340.469 335.329 340.86C334.939 340.86 334.419 340.86 334.028 340.599C332.598 339.947 331.297 340.077 329.996 340.599C329.606 340.73 329.216 341.121 328.825 341.121C325.964 341.121 323.232 340.991 320.371 340.991C319.72 340.991 318.94 340.991 318.289 340.991C317.639 340.991 316.859 341.382 316.208 341.121C314.777 340.599 313.216 340.73 311.786 340.73C310.355 340.73 309.054 340.338 307.753 340.599C305.542 340.991 303.331 341.121 301.12 341.252C298.518 341.513 297.998 342.557 297.868 345.037C297.868 345.298 297.868 345.689 297.868 345.82C297.868 345.95 297.608 345.82 297.608 345.82C297.738 346.864 297.998 347.777 298.258 348.821C298.518 349.865 298.388 351.04 297.868 352.084C297.347 353.128 297.087 354.041 296.697 354.955C295.787 357.695 293.705 359.261 292.014 361.611C291.364 362.524 290.063 363.046 289.023 363.438C287.332 364.09 285.511 364.482 283.69 365.004C282.909 365.134 282.259 365.004 281.348 365.004C280.438 365.004 279.787 365.004 279.007 365.787C278.227 366.57 277.186 367.092 276.015 366.961C273.544 366.7 271.072 366.57 268.731 365.656C267.3 365.134 266.39 364.09 265.87 362.785C265.089 360.827 264.699 358.739 264.179 356.651C264.179 356.39 264.179 355.999 264.309 355.607C264.829 354.433 264.699 353.519 264.309 352.345C264.179 351.562 264.309 350.648 264.699 349.735C264.959 348.821 264.959 348.169 264.699 347.386C264.179 345.689 263.788 344.123 263.398 342.296C263.008 340.469 262.618 338.511 262.358 336.684C262.358 336.162 262.227 335.379 262.358 334.857C263.008 333.552 262.878 332.639 262.618 331.334C262.358 330.029 261.967 328.724 261.577 327.549C261.577 327.158 261.317 326.897 261.447 326.505C261.707 323.895 261.837 321.546 262.358 318.936C262.748 317.5 262.097 316.065 261.707 314.629C261.057 312.541 260.797 310.714 261.317 308.626C261.707 306.929 261.577 305.363 260.927 303.667C260.406 302.362 260.536 301.448 261.317 300.274C261.707 299.752 262.097 299.23 261.577 298.577V298.708ZM234.652 460.01L234.912 460.402L234.522 460.141C234.522 460.141 234.522 460.01 234.652 460.01ZM234.262 464.578L234.392 464.839C234.392 464.839 234.262 464.839 234.131 464.839C234.131 464.839 234.131 464.708 234.131 464.578C234.131 464.578 234.131 464.447 234.262 464.578ZM233.351 461.837V462.359H233.091C233.091 462.359 232.961 461.968 233.091 461.837C233.221 461.707 233.351 461.837 233.351 461.837ZM229.709 469.015C229.709 469.015 229.969 469.537 229.969 469.798C229.969 469.929 229.709 470.19 229.579 470.19C229.579 470.19 229.189 469.929 229.189 469.798C229.189 469.668 229.189 469.146 229.319 469.146H229.579L229.709 469.015ZM228.929 462.751L229.319 463.012C229.319 463.012 229.189 463.273 229.059 463.273C228.929 463.273 228.668 463.142 228.668 463.012C228.668 462.881 228.798 462.751 228.929 462.751ZM228.148 463.534C228.148 463.534 228.798 464.056 228.408 464.708C227.888 464.317 227.888 464.186 228.148 463.534ZM403.748 496.421C403.748 494.855 399.456 497.465 398.415 497.856C397.765 498.117 396.594 498.378 395.813 498.509C395.813 498.77 395.813 498.639 395.944 498.9C395.944 499.161 396.074 499.944 395.944 500.205C395.944 500.597 395.944 500.727 395.944 500.988C396.204 500.205 396.334 499.161 397.374 499.422C397.374 500.205 397.244 500.858 396.854 501.641C396.854 501.902 396.464 502.033 396.204 502.163C395.944 502.294 395.683 502.163 395.423 502.163C395.293 502.163 395.163 502.163 395.033 502.163C394.773 501.771 394.513 501.771 393.992 501.771C393.992 501.249 394.383 500.988 393.992 500.597C393.082 500.597 392.952 501.51 392.692 502.163C392.041 502.163 391.391 502.032 390.611 501.771C390.22 501.771 390.22 501.51 390.22 501.119C390.22 500.727 390.35 500.075 390.48 499.683C390.48 499.683 389.96 499.683 389.96 499.814C389.7 500.075 389.31 500.597 389.05 500.727C388.789 500.858 388.789 500.858 388.659 500.988C388.269 501.51 387.879 501.641 387.359 501.771C386.838 501.902 386.838 501.771 386.188 501.771C385.538 501.771 385.668 501.51 384.887 501.119C384.107 500.727 380.725 502.555 379.944 503.338C375.392 501.902 370.189 503.729 366.027 504.512C359.653 505.817 353.93 506.992 347.556 507.514C334.679 508.688 321.931 508.427 309.054 507.514C300.339 506.861 291.494 507.383 282.909 505.687C274.324 503.99 266.65 500.466 258.455 497.726C258.065 498.117 258.846 498.378 258.195 498.9C256.634 500.075 251.952 500.205 250.131 498.9C250.521 498.509 250.651 498.248 251.041 497.987C251.431 497.726 251.952 497.465 252.472 497.726C252.602 497.726 252.862 497.726 253.122 497.856C253.382 497.987 253.773 497.987 254.033 498.248C254.293 498.509 254.813 498.77 255.203 498.9C255.594 498.117 255.854 497.465 255.594 496.682C255.594 496.421 255.594 496.029 255.464 495.899C255.203 495.638 255.203 495.768 254.683 495.638C252.992 495.246 250.261 494.985 248.83 493.811C247.399 492.506 245.708 492.897 244.147 491.462C243.237 490.679 242.326 490.418 240.895 489.374C240.635 489.243 239.204 487.286 237.904 486.764C237.253 486.503 234.652 485.067 233.611 484.414C232.571 483.762 231.53 482.196 230.359 481.413C230.75 480.891 229.579 481.021 229.969 480.369C229.449 479.847 226.717 478.02 227.107 477.237C227.498 476.454 229.839 477.498 230.619 477.237C231.14 476.062 236.083 473.322 235.172 472.539C234.262 471.756 236.213 470.581 235.952 469.276C235.692 468.102 236.603 467.057 236.343 466.013V465.883C236.343 465.883 236.083 466.013 235.822 466.013C235.562 466.013 234.912 466.274 234.652 465.752C234.652 466.013 234.131 466.274 234.001 466.405C233.611 466.144 233.741 465.491 234.001 465.23C234.262 464.969 234.392 465.1 234.522 465.23C234.522 464.839 234.522 464.447 234.912 464.056C234.912 464.056 235.042 464.056 235.302 463.795C235.562 463.534 235.692 463.142 236.083 463.273C236.083 463.273 236.343 463.664 236.343 463.534C236.343 463.534 236.603 462.881 236.603 462.751C236.603 462.751 236.603 462.751 236.473 462.751C236.473 462.751 236.083 462.49 236.083 462.359C236.083 462.229 236.213 461.968 236.343 461.837C236.213 461.837 236.083 461.837 235.952 461.968C235.432 462.098 235.042 461.968 234.652 461.707C234.262 461.315 234.652 460.793 234.652 460.532C234.782 460.271 234.652 460.271 234.912 460.141C235.042 460.141 235.172 460.141 235.432 460.01C235.953 459.749 236.343 460.01 236.603 460.402C236.863 460.663 236.993 460.924 237.123 461.185C237.123 460.663 237.123 460.402 236.733 459.488C236.213 458.444 235.562 456.617 237.123 455.573C236.603 455.182 235.432 454.921 235.432 454.138C235.432 453.355 236.603 452.833 236.993 452.441C236.733 450.875 236.473 449.701 237.383 448.395C237.513 448.656 237.904 448.917 237.904 449.178C237.904 449.44 237.513 449.57 237.513 449.701C237.513 450.092 238.034 450.353 238.294 450.745C238.684 449.961 239.204 449.57 239.725 448.787C240.895 447.351 242.456 446.829 244.277 446.568C244.537 446.568 244.798 446.438 245.058 446.438C251.041 445.002 256.634 447.09 262.748 446.568C263.918 446.568 264.959 445.655 266.13 446.438C266.78 446.829 266.78 447.612 267.821 447.873C268.861 448.134 270.552 447.873 271.593 447.873C275.365 448.134 279.137 449.309 282.909 449.178C285.641 449.178 288.372 449.57 290.974 449.178C293.185 448.917 294.876 448.526 297.087 449.178C300.079 449.831 302.941 449.57 306.062 449.701C306.973 449.701 307.883 450.092 308.664 449.962C309.444 449.831 310.095 449.178 310.875 448.787C312.956 448.134 314.647 448.395 316.598 449.44C318.68 450.484 320.761 451.267 323.232 451.267C325.183 451.267 326.744 451.136 328.825 451.658C333.638 452.702 338.841 451.789 343.654 451.658C348.076 451.658 351.979 451.919 356.271 451.397C358.222 451.136 359.133 452.18 361.214 452.572C363.295 452.963 364.336 452.833 367.197 452.833C370.839 452.833 378.253 451.919 381.635 454.399C383.066 455.443 383.847 454.921 385.147 455.182C385.928 455.312 386.318 455.443 386.968 455.704C387.619 455.965 388.789 456.226 389.44 456.487C390.09 456.748 390.48 456.878 390.871 457.009C392.301 457.661 393.602 458.314 394.773 459.227C394.773 459.749 395.163 460.924 395.163 461.315C395.163 461.968 395.163 464.578 396.074 464.447C396.854 464.447 396.594 466.144 396.854 466.796C397.114 467.449 397.244 468.102 397.504 468.885C397.765 469.668 398.155 470.973 398.415 471.756C398.935 473.061 399.586 475.018 399.976 476.062C400.366 477.106 400.626 478.15 401.277 478.411C401.927 478.672 401.667 478.281 402.187 478.803C402.707 479.325 402.968 481.021 403.878 481.152C404.919 481.152 404.789 483.501 405.049 484.154C405.309 484.806 405.179 488.852 405.699 488.46C406.219 488.069 405.699 489.635 405.699 490.157C405.699 492.245 406.61 496.16 403.618 496.421H403.748ZM234.001 469.407C234.001 469.407 234.262 469.146 234.392 469.146C234.392 469.146 234.652 469.407 234.782 469.537C234.782 469.537 234.392 469.798 234.262 469.668L234.001 469.407ZM398.805 463.795C398.805 463.795 399.195 463.012 399.195 462.751C399.195 462.751 399.586 462.751 399.586 462.881C399.586 463.142 399.325 463.795 399.195 463.925C399.195 463.925 398.805 463.925 398.805 463.795ZM404.528 468.232C404.528 468.232 405.439 468.624 405.569 468.754C405.569 468.754 405.439 469.146 405.309 469.146C405.179 469.146 404.528 468.754 404.398 468.624C404.398 468.624 404.398 468.232 404.528 468.232ZM411.682 500.075C411.032 499.553 410.382 499.031 409.731 498.509C410.382 498.248 411.032 497.987 411.682 497.726C411.682 498.509 411.682 499.292 411.682 500.075ZM409.471 490.679C408.951 489.765 408.431 488.982 407.91 488.069C409.341 485.85 408.691 484.936 406.74 483.37C408.04 482.326 409.211 482.979 410.642 483.37C410.382 484.936 410.642 485.981 411.813 487.025C411.032 488.33 410.122 489.504 409.341 490.809L409.471 490.679ZM410.642 478.281C410.512 479.194 410.382 480.108 410.252 481.021C409.601 479.847 409.861 479.325 410.642 478.281ZM410.382 469.537C409.601 469.537 408.821 469.537 408.561 468.624C408.171 467.71 408.691 467.318 409.341 466.666C409.601 466.405 409.992 466.274 410.252 466.013C411.032 466.927 411.682 467.971 412.593 468.885C413.113 469.537 413.894 469.929 414.414 470.451C414.414 470.451 414.414 470.842 414.284 470.842C413.764 470.581 412.983 470.19 412.333 469.929C411.682 469.668 411.292 469.537 410.512 469.537H410.382ZM415.064 524.479C415.064 524.479 414.154 524.479 413.764 524.349V524.088C414.154 524.088 414.804 524.088 415.064 524.088V524.349V524.479ZM415.585 503.729C414.544 503.338 413.504 503.338 413.113 502.032C412.983 501.51 412.853 501.119 413.373 500.597C413.634 500.336 413.634 499.161 413.764 498.639C415.064 499.422 416.365 500.205 417.666 500.858C419.617 501.902 419.617 502.424 418.967 504.512C417.796 504.251 416.755 503.99 415.715 503.729H415.585ZM419.227 528.655C419.617 528.003 420.007 527.22 420.528 526.567C420.788 527.742 420.527 528.264 419.227 528.655ZM442.12 349.604C441.6 348.952 441.209 348.169 440.689 347.516C441.339 346.994 441.99 346.342 442.64 345.82C442.51 347.125 442.38 348.299 442.25 349.604H442.12ZM447.583 351.301C447.583 350.387 447.583 349.474 447.583 348.56C448.363 348.691 449.144 348.821 450.054 348.952C449.794 350.518 449.274 351.17 447.583 351.301ZM452.005 347.777L452.266 347.516C452.526 347.777 452.916 348.299 453.176 348.56C453.176 348.56 452.916 348.952 452.786 348.821C452.656 348.56 452.135 348.038 452.005 347.647V347.777ZM456.818 359.522C455.517 359.783 454.217 359.914 453.046 360.044C453.046 359.914 452.916 359.783 452.786 359.522C454.217 358.478 455.257 357.434 455.127 355.607C455.908 355.346 456.428 355.607 456.818 356.26C457.208 356.912 457.469 357.565 457.599 358.348C457.599 358.739 457.208 359.261 456.818 359.392V359.522ZM481.532 396.586C481.272 397.891 480.362 401.023 479.971 402.719C479.711 403.894 479.451 405.59 479.191 406.504C478.931 407.417 478.41 408.07 478.15 408.722C477.89 409.375 477.89 409.375 477.63 409.897C477.89 409.897 478.15 409.897 478.28 409.897C478.15 411.332 477.76 412.115 476.199 412.246C476.199 411.985 476.199 411.724 476.199 411.463C475.549 411.463 475.159 410.81 474.768 410.288C474.638 410.027 474.378 409.636 474.248 409.375C473.728 408.592 473.988 407.417 473.598 406.634C472.817 405.199 471.777 405.068 471.256 403.241C470.736 401.414 470.476 399.457 470.086 397.368C470.086 396.716 470.086 394.628 470.086 393.714C470.086 392.931 470.086 391.365 469.695 390.843C469.305 390.321 469.305 390.452 469.175 389.93C469.175 390.582 469.045 391.235 468.915 392.018C468.525 391.365 468.135 390.582 467.614 389.93C467.874 389.408 468.395 389.538 468.525 388.886C468.525 388.625 468.525 389.147 468.395 388.103C468.395 387.059 468.135 383.405 468.135 381.839C469.565 381.839 471.126 381.839 472.557 381.839C473.988 382.622 476.069 382.23 477.37 381.839C478.671 381.447 479.841 380.795 481.012 381.839C480.752 382.883 480.752 387.189 480.752 387.711C480.752 389.669 481.402 389.538 481.272 391.104C481.142 393.192 481.532 394.367 481.142 396.716L481.532 396.586ZM507.937 231.107C504.685 235.413 506.767 241.808 506.376 246.506C506.246 248.203 506.116 250.03 505.726 251.726C505.206 255.12 505.726 258.774 503.255 261.645C500.783 264.646 500.393 272.085 499.613 275.87C499.222 277.436 496.491 282.003 497.661 282.003C498.702 282.003 495.45 288.267 494.93 289.833C494.67 290.486 494.019 292.444 493.499 293.227C493.109 293.749 492.849 294.532 492.589 295.184C490.117 301.97 487.906 308.887 486.085 315.804C485.825 316.978 485.695 318.283 485.825 319.327C485.955 320.371 485.825 321.154 485.955 322.198C486.215 328.854 486.215 335.249 485.825 341.904C485.434 348.43 485.174 354.694 484.524 361.48C484.524 362.916 484.004 365.395 483.874 366.961C482.183 367.092 480.362 367.092 478.671 367.222C477.11 366.439 475.679 366.831 473.728 366.961C472.297 366.961 468.395 367.222 466.964 367.614C465.533 368.005 465.013 365.526 464.623 365.004C462.411 361.611 462.021 357.434 461.371 353.519C459.94 347.908 460.2 342.296 456.298 337.598C462.932 327.549 451.095 314.238 446.542 305.233C443.811 311.497 448.363 315.021 449.924 321.024C443.681 320.241 440.559 315.282 436.006 311.497C438.478 310.323 440.299 308.365 443.03 307.843C439.778 304.189 439.128 301.709 444.721 301.187C444.721 302.362 443.941 303.145 444.071 304.319C451.485 296.359 446.022 284.222 442.9 275.348C442.77 274.956 442.51 274.173 442.25 273.651C440.949 270.127 439.388 266.473 437.957 263.08C437.307 261.645 436.787 260.079 436.266 258.774C435.486 256.947 434.706 254.858 434.185 253.423C433.665 251.857 433.145 250.291 432.754 249.116C432.104 247.159 431.844 245.462 431.714 243.766C431.584 242.069 431.844 241.547 430.933 240.373C430.413 239.72 429.893 239.198 429.503 238.415C428.722 236.849 428.462 235.283 428.202 233.586C428.072 232.542 427.812 231.498 427.421 230.585C427.031 229.671 426.511 228.627 426.121 227.583C425.73 226.67 425.21 225.626 424.95 224.712C424.56 223.799 424.3 223.016 423.909 222.102C423.259 220.406 422.609 218.578 422.088 216.882C421.568 215.185 421.048 213.75 420.528 212.053C420.007 210.357 419.617 208.791 419.097 207.094C418.576 205.267 418.056 203.31 417.666 201.482C417.146 199.264 416.495 196.915 416.105 194.696C414.674 188.432 413.373 181.907 412.333 175.643C411.682 172.25 411.162 168.726 410.512 165.333C410.252 163.506 409.861 161.548 409.601 159.721C408.951 155.676 408.301 151.5 407.65 147.584C407.26 144.974 406.87 142.364 406.61 139.754C405.829 132.968 405.179 126.312 404.268 119.526C403.748 116.133 403.228 113.001 402.577 109.738C401.537 105.171 399.976 100.734 398.415 96.2965C397.895 94.9915 397.374 93.5559 396.984 92.2509C395.813 88.8578 394.513 85.3342 393.472 81.8106C392.432 78.287 391.521 74.7634 391.001 71.1093C390.22 71.5008 389.57 71.8923 388.789 72.2838C389.7 70.8483 390.09 69.2822 390.741 67.7162C391.391 67.4552 395.944 66.2806 396.074 66.2806C397.504 66.6721 398.285 66.8027 399.065 67.1942C402.317 68.8907 406.089 70.3263 409.471 70.8483C412.983 71.3703 415.975 72.1533 418.706 73.7193C422.999 76.3294 425.34 79.7225 429.633 82.2021C430.803 82.9851 434.185 82.8546 435.356 83.7681C442.12 89.1188 448.493 94.3389 455.127 99.8201C456.038 100.603 457.469 101.908 458.379 102.691C462.541 106.998 466.444 110.913 470.476 115.22C472.427 117.177 474.248 119.135 476.329 121.223C478.931 123.963 479.451 129.705 481.532 132.446C485.825 138.188 491.418 141.059 495.45 146.801C496.101 147.584 496.491 148.759 496.881 149.673C499.222 156.459 501.564 163.245 503.905 170.031C504.946 173.033 505.596 176.295 506.246 179.297C507.287 183.603 508.067 187.91 509.108 192.086C509.498 193.913 509.758 195.871 509.758 197.567C509.758 201.091 509.758 205.789 509.758 208.921C509.498 214.924 511.839 227.061 508.588 231.368L507.937 231.107ZM437.437 297.011C437.437 297.011 438.478 296.62 438.868 296.75C439.648 297.272 439.518 298.055 438.998 298.708C438.478 298.316 437.697 297.925 437.307 297.533C437.307 297.533 437.307 297.011 437.307 296.881L437.437 297.011Z" fill="white"/>
</svg>
