<svg width="1440" height="632" viewBox="0 0 1440 632" fill="none" xmlns="http://www.w3.org/2000/svg">
    <g opacity="0.02">
        <path d="M-246.672 0L-278 311.477H-230.517L-227.026 251.658H-207.998L-204.507 311.477H-157.024L-188.326 0H-246.672ZM-224.112 201.922L-217.505 88.8101L-210.899 201.922H-224.112ZM-44.0386 0V311.477H-94.0456L-115.867 162.408V311.477H-157.011V0H-108.776L-86.566 157.115V0H-44.0386ZM348.565 261.389H387.359V311.464H299.323V0H348.565V261.389ZM209.649 0L178.321 311.477H225.803L229.295 251.658H248.323L251.814 311.477H299.297L268.008 0H209.663H209.649ZM232.209 201.922L238.815 88.8101L245.422 201.922H232.209ZM10.3998 0V311.477H-32.987V0H10.3998ZM178.321 0V311.477H132.759V140.444L115.154 311.477H85.7461L66.9464 140.909V311.477H21.4379V0H87.156L99.7249 141.437L112.361 0H178.334H178.321Z" fill="white" />
        <path d="M418.688 0L387.359 311.477H434.842L438.333 251.658H457.361L460.853 311.477H508.335L477.034 0H418.688ZM441.247 201.922L447.854 88.8101L454.461 201.922H441.247ZM621.321 0V311.477H571.314L549.493 162.408V311.477H508.348V0H556.583L578.793 157.115V0H621.321ZM1013.92 261.389H1052.72V311.464H964.683V0H1013.92V261.389ZM875.008 0L843.68 311.477H891.163L894.654 251.658H913.682L917.173 311.477H964.656L933.368 0H875.022H875.008ZM897.568 201.922L904.175 88.8101L910.781 201.922H897.568ZM675.759 0V311.477H632.372V0H675.759ZM843.68 0V311.477H798.118V140.444L780.513 311.477H751.105L732.306 140.909V311.477H686.797V0H752.515L765.084 141.437L777.72 0H843.694H843.68Z" fill="white" />
        <path d="M1084.05 0L1052.72 311.477H1100.2L1103.69 251.658H1122.72L1126.21 311.477H1173.69L1142.39 0H1084.05ZM1106.61 201.922L1113.21 88.8101L1119.82 201.922H1106.61ZM1286.68 0V311.477H1236.67L1214.85 162.408V311.477H1173.71V0H1221.94L1244.15 157.115V0H1286.68ZM1679.28 261.389H1718.08V311.464H1630.04V0H1679.28V261.389ZM1540.37 0L1509.04 311.477H1556.52L1560.01 251.658H1579.04L1582.53 311.477H1630.02L1598.73 0H1540.38H1540.37ZM1562.93 201.922L1569.53 88.8101L1576.14 201.922H1562.93ZM1341.12 0V311.477H1297.73V0H1341.12ZM1509.04 0V311.477H1463.48V140.444L1445.87 311.477H1416.46L1397.67 140.909V311.477H1352.16V0H1417.87L1430.44 141.437L1443.08 0H1509.05H1509.04Z" fill="white" />
    </g>
    <g opacity="0.02">
        <path d="M-246.672 320L-278 631.477H-230.517L-227.026 571.658H-207.998L-204.507 631.477H-157.024L-188.326 320H-246.672ZM-224.112 521.922L-217.505 408.81L-210.899 521.922H-224.112ZM-44.0386 320V631.477H-94.0456L-115.867 482.408V631.477H-157.011V320H-108.776L-86.566 477.115V320H-44.0386ZM348.565 581.389H387.359V631.464H299.323V320H348.565V581.389ZM209.649 320L178.321 631.477H225.803L229.295 571.658H248.323L251.814 631.477H299.297L268.008 320H209.663H209.649ZM232.209 521.922L238.815 408.81L245.422 521.922H232.209ZM10.3998 320V631.477H-32.987V320H10.3998ZM178.321 320V631.477H132.759V460.444L115.154 631.477H85.7461L66.9464 460.909V631.477H21.4379V320H87.156L99.7249 461.437L112.361 320H178.334H178.321Z" fill="white" />
        <path d="M418.688 320L387.359 631.477H434.842L438.333 571.658H457.361L460.853 631.477H508.335L477.034 320H418.688ZM441.247 521.922L447.854 408.81L454.461 521.922H441.247ZM621.321 320V631.477H571.314L549.493 482.408V631.477H508.348V320H556.583L578.793 477.115V320H621.321ZM1013.92 581.389H1052.72V631.464H964.683V320H1013.92V581.389ZM875.008 320L843.68 631.477H891.163L894.654 571.658H913.682L917.173 631.477H964.656L933.368 320H875.022H875.008ZM897.568 521.922L904.175 408.81L910.781 521.922H897.568ZM675.759 320V631.477H632.372V320H675.759ZM843.68 320V631.477H798.118V460.444L780.513 631.477H751.105L732.306 460.909V631.477H686.797V320H752.515L765.084 461.437L777.72 320H843.694H843.68Z" fill="white" />
        <path d="M1084.05 320L1052.72 631.477H1100.2L1103.69 571.658H1122.72L1126.21 631.477H1173.69L1142.39 320H1084.05ZM1106.61 521.922L1113.21 408.81L1119.82 521.922H1106.61ZM1286.68 320V631.477H1236.67L1214.85 482.408V631.477H1173.71V320H1221.94L1244.15 477.115V320H1286.68ZM1679.28 581.389H1718.08V631.464H1630.04V320H1679.28V581.389ZM1540.37 320L1509.04 631.477H1556.52L1560.01 571.658H1579.04L1582.53 631.477H1630.02L1598.73 320H1540.38H1540.37ZM1562.93 521.922L1569.53 408.81L1576.14 521.922H1562.93ZM1341.12 320V631.477H1297.73V320H1341.12ZM1509.04 320V631.477H1463.48V460.444L1445.87 631.477H1416.46L1397.67 460.909V631.477H1352.16V320H1417.87L1430.44 461.437L1443.08 320H1509.05H1509.04Z" fill="white" />
    </g>
</svg>